<svg xmlns="http://www.w3.org/2000/svg" xmlns:xlink="http://www.w3.org/1999/xlink" version="1.1" x="0px" y="0px" viewBox="0 0 100.06 125" enable-background="new 0 0 100.06 100" xml:space="preserve"><g><path d="M43.038,41.322c-0.714-0.713-1.817-0.796-2.623-0.25l-6.2-6.199c-0.073-0.074-0.174-0.115-0.278-0.115h-2.567   c-0.162,0-0.307,0.098-0.366,0.248c-3.21,8.115-3.975,14.362-3.975,18.467c0,3.69,0.618,5.65,0.629,5.687   c0.066,0.207,0.287,0.321,0.494,0.255c0.207-0.066,0.321-0.288,0.255-0.494l-0.005-0.017c-0.058-0.191-0.587-2.052-0.587-5.431   c0-3.965,0.732-10.024,3.823-17.929l2.135,0.001l6.084,6.083c-0.545,0.806-0.462,1.909,0.251,2.623   c0.809,0.808,2.119,0.808,2.928,0C43.846,43.44,43.846,42.131,43.038,41.322z"/><path d="M47.873,76.076c0,0-0.056-0.002-0.172-0.015c-0.872-0.09-4.907-0.61-9.053-2.76c-4.105-2.133-8.3-5.823-9.771-12.292   l2.676-2.677h7.51c0.104,0,0.205-0.041,0.278-0.114l1.128-1.129c0.805,0.546,1.909,0.463,2.622-0.249   c0.809-0.809,0.809-2.118,0-2.927c-0.808-0.81-2.119-0.81-2.926-0.002c-0.713,0.713-0.796,1.817-0.252,2.623L38.9,57.549   l-7.51-0.003c-0.104,0-0.205,0.044-0.278,0.117l-2.945,2.946c-0.095,0.094-0.135,0.229-0.106,0.359   c1.579,7.33,6.551,11.325,11.079,13.452c4.533,2.131,8.647,2.438,8.675,2.44c0.217,0.017,0.405-0.146,0.421-0.364   C48.251,76.281,48.089,76.093,47.873,76.076z"/><path d="M72.646,58.819c-0.075-0.085-0.185-0.135-0.297-0.135h-4.822l-4.589-4.592c-0.073-0.072-0.175-0.114-0.278-0.114h-1.877   c-0.183-0.955-1.022-1.676-2.031-1.676c-1.143,0-2.068,0.927-2.068,2.068c0,1.145,0.926,2.07,2.068,2.07   c1.007,0,1.849-0.723,2.031-1.676h1.715l4.59,4.59c0.074,0.074,0.172,0.116,0.277,0.116h4.521   c-1.321,7.891-6.277,12.048-10.998,14.293c-2.402,1.138-4.738,1.763-6.471,2.105c-0.866,0.171-1.58,0.271-2.074,0.326   c-0.249,0.027-0.442,0.046-0.573,0.056c-0.131,0.011-0.195,0.013-0.195,0.013c-0.216,0.013-0.384,0.195-0.372,0.413   c0.011,0.217,0.195,0.385,0.411,0.372c0.029-0.002,4.65-0.229,9.611-2.575c4.956-2.338,10.274-6.854,11.513-15.34   C72.754,59.022,72.721,58.906,72.646,58.819z"/><path d="M65.373,26.971c-0.064-0.099-0.17-0.165-0.288-0.177c-0.116-0.012-0.235,0.029-0.318,0.113l-2.485,2.484   c-0.072,0.073-0.114,0.175-0.114,0.278v9.012l-2.559,2.558c-0.806-0.545-1.91-0.462-2.622,0.251c-0.809,0.808-0.809,2.119,0,2.927   c0.808,0.808,2.117,0.808,2.928,0c0.712-0.713,0.795-1.816,0.249-2.622l2.675-2.674c0.072-0.073,0.116-0.174,0.116-0.278v-9.012   l2.021-2.021c6.305,9.942,7.268,20.564,7.268,26.069c0,1.192-0.043,2.144-0.089,2.795c-0.022,0.326-0.044,0.578-0.062,0.746   c-0.015,0.168-0.024,0.251-0.024,0.251c-0.027,0.216,0.124,0.413,0.34,0.44c0.217,0.027,0.412-0.127,0.438-0.343l0,0   c0.002-0.013,0.185-1.466,0.185-3.89C73.027,48.21,72.037,37.221,65.373,26.971z"/><path d="M64.582,25.55C59.446,15.553,51.375,6.598,51.364,6.583c-0.146-0.162-0.395-0.174-0.556-0.029   C50.646,6.7,50.634,6.948,50.779,7.11c0,0,0.124,0.137,0.353,0.399c1.587,1.816,8.182,9.604,12.619,18.146l-3.437,3.436   c-0.072,0.073-0.114,0.174-0.114,0.278v8.984h-2.483c-0.104,0-0.205,0.042-0.278,0.115l-2.843,2.842   c-0.806-0.545-1.908-0.462-2.623,0.25c-0.808,0.809-0.808,2.119,0,2.928c0.808,0.808,2.118,0.808,2.929,0   c0.712-0.713,0.795-1.817,0.251-2.623l2.727-2.728h2.714c0.104,0,0.206-0.042,0.278-0.115c0.073-0.074,0.116-0.174,0.116-0.278   v-9.214l3.524-3.524C64.632,25.887,64.661,25.702,64.582,25.55z"/><path d="M68.818,49.488c-0.708,0-1.298,0.507-1.427,1.178H53.634c-0.153,0-0.277,0.123-0.277,0.276   c0,0.153,0.124,0.277,0.277,0.277h13.758c0.129,0.671,0.719,1.178,1.427,1.178c0.804,0,1.456-0.65,1.456-1.455   C70.274,50.139,69.622,49.488,68.818,49.488z"/><path d="M68.054,42.836c-0.708,0-1.298,0.507-1.429,1.179h-4.412c-0.073,0-0.144,0.029-0.195,0.082l-4.089,4.088h-4.295   c-0.153,0-0.277,0.124-0.277,0.276s0.124,0.275,0.277,0.275h4.409c0.072,0,0.144-0.029,0.195-0.08l4.089-4.088h4.298   c0.131,0.67,0.721,1.178,1.429,1.178c0.804,0,1.456-0.651,1.456-1.455S68.857,42.836,68.054,42.836z"/><path d="M46.807,55.536c-0.108-0.105-0.283-0.105-0.391,0l-6.528,6.529h-4.245c-0.129-0.671-0.718-1.18-1.428-1.18   c-0.804,0-1.456,0.654-1.456,1.455c0,0.807,0.652,1.456,1.456,1.456c0.708,0,1.298-0.507,1.428-1.178h4.36   c0.072,0,0.145-0.031,0.195-0.081l6.609-6.609C46.916,55.818,46.916,55.646,46.807,55.536z"/><path d="M46.612,50.666H32.865c-0.129-0.671-0.719-1.178-1.428-1.178c-0.804,0-1.455,0.651-1.455,1.454   c0,0.804,0.651,1.455,1.455,1.455c0.708,0,1.298-0.507,1.427-1.178h13.748c0.153,0,0.276-0.124,0.276-0.277   C46.888,50.789,46.765,50.666,46.612,50.666z"/><path d="M46.612,47.935h-4.096l-6.634-6.634c-0.052-0.05-0.123-0.08-0.195-0.08H34.33c-0.129-0.671-0.718-1.18-1.427-1.18   c-0.804,0-1.455,0.652-1.455,1.456c0,0.804,0.651,1.455,1.455,1.455c0.709,0,1.298-0.507,1.427-1.179h1.242l6.634,6.634   c0.053,0.051,0.123,0.08,0.196,0.08h4.211c0.153,0,0.276-0.123,0.276-0.276C46.888,48.06,46.765,47.935,46.612,47.935z"/><path d="M46.807,43.026L42.182,38.4v-8.439c0-0.072-0.03-0.144-0.082-0.195l-1.767-1.767c0.383-0.566,0.325-1.342-0.176-1.844   c-0.567-0.568-1.49-0.568-2.058,0c-0.568,0.569-0.568,1.49,0,2.058c0.501,0.501,1.278,0.56,1.844,0.176l1.686,1.687v8.438   c0,0.072,0.029,0.144,0.082,0.195l4.705,4.706c0.108,0.108,0.283,0.108,0.391,0C46.916,43.309,46.916,43.134,46.807,43.026z"/><path d="M66.573,60.998c-0.502-0.503-1.276-0.562-1.844-0.177l-1.771-1.773h-5.617l-3.512-3.512c-0.107-0.105-0.282-0.105-0.39,0   c-0.108,0.11-0.108,0.282,0,0.393l3.671,3.672h5.617l1.611,1.611c-0.384,0.566-0.323,1.341,0.177,1.844   c0.569,0.569,1.489,0.569,2.058,0C67.141,62.486,67.141,61.564,66.573,60.998z"/><path d="M54.97,30.875v-6.93l-4.454-4.454V5.271c0-0.166-0.103-0.313-0.259-0.37C50.1,4.844,49.926,4.892,49.82,5.02   C35.7,22.071,31.516,33.787,31.502,33.824c-0.073,0.205,0.034,0.43,0.239,0.502c0.205,0.073,0.43-0.034,0.502-0.238h0   c0,0,0.015-0.041,0.048-0.128c0.486-1.286,4.8-12.129,17.438-27.592v6.408l-4.644,4.644v11.518   c-0.955,0.184-1.676,1.023-1.676,2.031c0,1.143,0.927,2.07,2.069,2.07c1.143,0,2.07-0.927,2.07-2.07   c0-1.008-0.722-1.847-1.676-2.031V17.745l3.857-3.857v20.8c-0.955,0.184-1.676,1.023-1.676,2.031c0,1.143,0.927,2.07,2.07,2.07   c1.142,0,2.07-0.927,2.07-2.07c0-1.008-0.723-1.847-1.678-2.031V20.604l3.669,3.667v6.604c-0.955,0.184-1.678,1.023-1.678,2.031   c0,1.143,0.928,2.07,2.07,2.07c1.142,0,2.07-0.927,2.07-2.07C56.647,31.898,55.925,31.06,54.97,30.875z"/><path d="M59.044,66.897c-1.007,0-1.847,0.723-2.031,1.678h-2.675l-3.822,3.821v-6.635c0.955-0.183,1.678-1.022,1.678-2.031   c0-1.143-0.929-2.068-2.07-2.068c-1.143,0-2.07,0.926-2.07,2.068c0,1.009,0.722,1.849,1.676,2.031v7.961l-4.372-4.371v-3.943   l-0.266-0.266c0.545-0.806,0.462-1.908-0.251-2.623c-0.808-0.808-2.119-0.808-2.927,0c-0.808,0.811-0.808,2.118,0,2.929   c0.714,0.712,1.817,0.795,2.622,0.249l0.036,0.037v3.943l5.158,5.158v20.286h0.786V73.507l4.148-4.146h2.349   c0.185,0.955,1.024,1.678,2.031,1.678c1.144,0,2.07-0.929,2.07-2.07C61.114,67.825,60.188,66.897,59.044,66.897z"/><path d="M59.337,25.091c0-0.796-0.646-1.442-1.441-1.442c-0.796,0-1.441,0.646-1.441,1.442c0,0.694,0.492,1.274,1.146,1.411v7.971   l-4.452,4.452l0.417,0.417l4.625-4.624v-8.216C58.845,26.366,59.337,25.785,59.337,25.091z"/></g><text x="0" y="115" fill="#000000" font-size="5px" font-weight="bold" font-family="'Helvetica Neue', Helvetica, Arial-Unicode, Arial, Sans-serif">Created by Frank Ameka</text><text x="0" y="120" fill="#000000" font-size="5px" font-weight="bold" font-family="'Helvetica Neue', Helvetica, Arial-Unicode, Arial, Sans-serif">from the Noun Project</text></svg>